<?xml version="1.0" encoding="UTF-8"?>
<svg color="#F5F5F5" fill="#F5F5F5" version="1.1" viewBox="0 0 96 96" xml:space="preserve" xmlns="http://www.w3.org/2000/svg"><path d="m56.387 21.236-43.938.002a.938.938 0 0 0-.662 1.604l15.67 15.578 5.385 22.557a.938.938 0 0 0 1.72.257l22.633-38.586a.938.938 0 0 0-.808-1.412zm-3.526 1.875L28.465 36.777 14.723 23.115zm1.453 0h.436l-.223.38zm-.52 1.63L34.126 58.272l-4.742-19.86Z" color="#f5f5f5" fill="currentColor" stroke="#000" stroke-linecap="square" stroke-opacity=".098976" stroke-width="2" style="paint-order:stroke fill markers"/><path d="m92.268 95.027c-7.7386-0.14059-35.232-34.696-35.232-34.696-2.6387 2.2867-7.1485 5.1425-10.663 6.4179-3.5133 1.2753-7.2527 1.913-11.218 1.913-9.5127 0-17.563-3.298-24.152-9.894-6.5887-6.596-9.883-14.555-9.883-23.878 0-9.322 3.298-17.281 9.894-23.877s14.577-9.894 23.943-9.894c9.3667 0 17.326 3.298 23.878 9.894s9.828 14.562 9.828 23.897c0 3.7687-0.61567 7.412-1.847 10.93s-4.1529 8.6075-6.6149 11.685c0 0 34.601 27.018 34.827 34.742 0.03798 1.3003-1.4589 2.7831-2.7595 2.7595zm-57.044-29.622c8.3838 0 15.51-2.9667 21.378-8.9 5.8684-5.9325 8.8026-13.077 8.8026-21.435s-2.9342-15.504-8.8026-21.437c-5.8684-5.9325-12.994-8.8988-21.378-8.8988-8.469 0-15.668 2.9663-21.596 8.8988-5.9286 5.9333-8.893 13.079-8.893 21.436 0 8.358 2.9643 15.503 8.893 21.436 5.9286 5.9333 13.127 8.9 21.596 8.9z" stroke="#000" stroke-linecap="square" stroke-opacity=".098976" stroke-width="2" style="paint-order:stroke fill markers"/></svg>
