<svg color="#F5F5F5" fill="#F5F5F5" height="96" width="96" xml:space="preserve" xmlns="http://www.w3.org/2000/svg"><path style="color:#f5f5f5;fill:currentColor;stroke-linejoin:round;stroke:#d4d4d4;stroke-opacity:.42978725;paint-order:stroke fill markers;stroke-linecap:butt;stroke-width:1;stroke-dasharray:none" d="m56.387 21.236-43.938.002a.938.938 0 0 0-.662 1.604l15.67 15.578 5.385 22.557a.938.938 0 0 0 1.72.257l22.633-38.586a.938.938 0 0 0-.808-1.412zm-3.526 1.875L28.465 36.777 14.723 23.115zm1.453 0h.436l-.223.38zm-.52 1.63L34.126 58.272l-4.742-19.86Z"/><path d="M90.297 96.102 55.602 61.406q-3.958 3.43-9.23 5.343-5.27 1.913-11.218 1.913-14.269 0-24.152-9.894-9.883-9.894-9.883-23.878 0-13.983 9.894-23.877 9.894-9.894 23.943-9.894 14.05 0 23.878 9.894t9.828 23.897q0 5.653-1.847 10.93t-5.54 9.894l34.827 34.563ZM35.022 60.747q10.719 0 18.222-7.586 7.503-7.585 7.503-18.27 0-10.686-7.503-18.272-7.503-7.585-18.222-7.585-10.828 0-18.408 7.585-7.58 7.586-7.58 18.271 0 10.686 7.58 18.271 7.58 7.586 18.408 7.586z" style="stroke-width:.131921;stroke:#bfbfbf;stroke-opacity:1"/></svg>